<mxfile host="Electron" agent="Mozilla/5.0 (Windows NT 10.0; Win64; x64) AppleWebKit/537.36 (KHTML, like Gecko) draw.io/27.0.9 Chrome/134.0.6998.205 Electron/35.4.0 Safari/537.36" version="27.0.9">
  <diagram name="Namal University Mess Management System" id="namal_use_case">
    <mxGraphModel dx="2605" dy="1650" grid="1" gridSize="10" guides="1" tooltips="1" connect="1" arrows="1" fold="1" page="1" pageScale="1" pageWidth="1400" pageHeight="1000" math="0" shadow="0">
      <root>
        <mxCell id="0" />
        <mxCell id="1" parent="0" />
        <mxCell id="system_boundary" value="Namal University Mess Management System" style="rounded=1;whiteSpace=wrap;html=1;fillColor=none;strokeColor=#000000;strokeWidth=2;dashed=1;verticalAlign=top;fontSize=16;fontStyle=1;" parent="1" vertex="1">
          <mxGeometry x="230" y="10" width="920" height="1390" as="geometry" />
        </mxCell>
        <mxCell id="customer_actor" value="Customer&#xa;(Student/Faculty)" style="shape=umlActor;verticalLabelPosition=bottom;verticalAlign=top;html=1;fontSize=12;" parent="1" vertex="1">
          <mxGeometry x="80" y="200" width="30" height="60" as="geometry" />
        </mxCell>
        <mxCell id="mess_manager_actor" value="Mess Manager" style="shape=umlActor;verticalLabelPosition=bottom;verticalAlign=top;html=1;fontSize=12;" parent="1" vertex="1">
          <mxGeometry x="90" y="560" width="30" height="60" as="geometry" />
        </mxCell>
        <mxCell id="menu_manager_actor" value="Menu Manager" style="shape=umlActor;verticalLabelPosition=bottom;verticalAlign=top;html=1;fontSize=12;" parent="1" vertex="1">
          <mxGeometry x="80" y="910" width="30" height="60" as="geometry" />
        </mxCell>
        <mxCell id="kitchen_staff_actor" value="Kitchen Staff" style="shape=umlActor;verticalLabelPosition=bottom;verticalAlign=top;html=1;fontSize=12;" parent="1" vertex="1">
          <mxGeometry x="1200" y="400" width="30" height="60" as="geometry" />
        </mxCell>
        <mxCell id="login_usecase" value="Login" style="ellipse;whiteSpace=wrap;html=1;fontSize=12;" parent="1" vertex="1">
          <mxGeometry x="480" y="50" width="140" height="60" as="geometry" />
        </mxCell>
        <mxCell id="browse_menu_usecase" value="Browse Menu" style="ellipse;whiteSpace=wrap;html=1;fontSize=12;" parent="1" vertex="1">
          <mxGeometry x="480" y="130" width="140" height="60" as="geometry" />
        </mxCell>
        <mxCell id="place_order_usecase" value="Place Order" style="ellipse;whiteSpace=wrap;html=1;fontSize=12;" parent="1" vertex="1">
          <mxGeometry x="480" y="210" width="140" height="60" as="geometry" />
        </mxCell>
        <mxCell id="track_order_usecase" value="Track Order" style="ellipse;whiteSpace=wrap;html=1;fontSize=12;" parent="1" vertex="1">
          <mxGeometry x="480" y="290" width="140" height="60" as="geometry" />
        </mxCell>
        <mxCell id="manage_wallet_usecase" value="Manage Wallet" style="ellipse;whiteSpace=wrap;html=1;fontSize=12;" parent="1" vertex="1">
          <mxGeometry x="480" y="370" width="140" height="60" as="geometry" />
        </mxCell>
        <mxCell id="view_order_history_usecase" value="View Order History" style="ellipse;whiteSpace=wrap;html=1;fontSize=12;" parent="1" vertex="1">
          <mxGeometry x="480" y="450" width="140" height="60" as="geometry" />
        </mxCell>
        <mxCell id="manage_profile_usecase" value="Manage Profile" style="ellipse;whiteSpace=wrap;html=1;fontSize=12;" parent="1" vertex="1">
          <mxGeometry x="480" y="530" width="140" height="60" as="geometry" />
        </mxCell>
        <mxCell id="view_notifications_usecase" value="View Notifications" style="ellipse;whiteSpace=wrap;html=1;fontSize=12;" parent="1" vertex="1">
          <mxGeometry x="480" y="610" width="140" height="60" as="geometry" />
        </mxCell>
        <mxCell id="topup_wallet_usecase" value="Top-up Wallet" style="ellipse;whiteSpace=wrap;html=1;fontSize=12;" parent="1" vertex="1">
          <mxGeometry x="480" y="700" width="140" height="60" as="geometry" />
        </mxCell>
        <mxCell id="register_customer_usecase" value="Register Customer" style="ellipse;whiteSpace=wrap;html=1;fontSize=12;" parent="1" vertex="1">
          <mxGeometry x="480" y="780" width="140" height="60" as="geometry" />
        </mxCell>
        <mxCell id="generate_reports_usecase" value="Generate Reports" style="ellipse;whiteSpace=wrap;html=1;fontSize=12;" parent="1" vertex="1">
          <mxGeometry x="480" y="860" width="140" height="60" as="geometry" />
        </mxCell>
        <mxCell id="manage_transactions_usecase" value="Manage Transactions" style="ellipse;whiteSpace=wrap;html=1;fontSize=12;" parent="1" vertex="1">
          <mxGeometry x="480" y="940" width="140" height="60" as="geometry" />
        </mxCell>
        <mxCell id="send_notifications_usecase" value="Send Notifications" style="ellipse;whiteSpace=wrap;html=1;fontSize=12;" parent="1" vertex="1">
          <mxGeometry x="480" y="1020" width="140" height="60" as="geometry" />
        </mxCell>
        <mxCell id="create_edit_menu_usecase" value="Create/Edit Menu" style="ellipse;whiteSpace=wrap;html=1;fontSize=12;" parent="1" vertex="1">
          <mxGeometry x="480" y="1110" width="140" height="60" as="geometry" />
        </mxCell>
        <mxCell id="manage_food_items_usecase" value="Manage Food Items" style="ellipse;whiteSpace=wrap;html=1;fontSize=12;" parent="1" vertex="1">
          <mxGeometry x="480" y="1190" width="140" height="60" as="geometry" />
        </mxCell>
        <mxCell id="set_item_prices_usecase" value="Set Item Prices" style="ellipse;whiteSpace=wrap;html=1;fontSize=12;" parent="1" vertex="1">
          <mxGeometry x="480" y="1270" width="140" height="60" as="geometry" />
        </mxCell>
        <mxCell id="view_orders_usecase" value="View Orders" style="ellipse;whiteSpace=wrap;html=1;fontSize=12;" parent="1" vertex="1">
          <mxGeometry x="860" y="340" width="140" height="60" as="geometry" />
        </mxCell>
        <mxCell id="update_order_status_usecase" value="Update Order Status" style="ellipse;whiteSpace=wrap;html=1;fontSize=12;" parent="1" vertex="1">
          <mxGeometry x="860" y="410" width="140" height="60" as="geometry" />
        </mxCell>
        <mxCell id="customer_login" value="" style="endArrow=none;html=1;rounded=0;exitX=1;exitY=0.3333333333333333;exitDx=0;exitDy=0;exitPerimeter=0;entryX=0;entryY=0.5;entryDx=0;entryDy=0;" parent="1" source="customer_actor" target="login_usecase" edge="1">
          <mxGeometry width="50" height="50" relative="1" as="geometry">
            <mxPoint x="130" y="220" as="sourcePoint" />
            <mxPoint x="180" y="170" as="targetPoint" />
          </mxGeometry>
        </mxCell>
        <mxCell id="customer_browse_menu" value="" style="endArrow=none;html=1;rounded=0;exitX=1;exitY=0.3333333333333333;exitDx=0;exitDy=0;exitPerimeter=0;entryX=0;entryY=0.5;entryDx=0;entryDy=0;" parent="1" source="customer_actor" target="browse_menu_usecase" edge="1">
          <mxGeometry width="50" height="50" relative="1" as="geometry">
            <mxPoint x="130" y="220" as="sourcePoint" />
            <mxPoint x="180" y="170" as="targetPoint" />
          </mxGeometry>
        </mxCell>
        <mxCell id="customer_place_order" value="" style="endArrow=none;html=1;rounded=0;exitX=1;exitY=0.3333333333333333;exitDx=0;exitDy=0;exitPerimeter=0;entryX=0;entryY=0.5;entryDx=0;entryDy=0;" parent="1" source="customer_actor" target="place_order_usecase" edge="1">
          <mxGeometry width="50" height="50" relative="1" as="geometry">
            <mxPoint x="130" y="220" as="sourcePoint" />
            <mxPoint x="180" y="170" as="targetPoint" />
          </mxGeometry>
        </mxCell>
        <mxCell id="customer_track_order" value="" style="endArrow=none;html=1;rounded=0;exitX=1;exitY=0.3333333333333333;exitDx=0;exitDy=0;exitPerimeter=0;entryX=0;entryY=0.5;entryDx=0;entryDy=0;" parent="1" source="customer_actor" target="track_order_usecase" edge="1">
          <mxGeometry width="50" height="50" relative="1" as="geometry">
            <mxPoint x="130" y="220" as="sourcePoint" />
            <mxPoint x="180" y="170" as="targetPoint" />
          </mxGeometry>
        </mxCell>
        <mxCell id="customer_manage_wallet" value="" style="endArrow=none;html=1;rounded=0;exitX=1;exitY=0.3333333333333333;exitDx=0;exitDy=0;exitPerimeter=0;entryX=0;entryY=0.5;entryDx=0;entryDy=0;" parent="1" source="customer_actor" target="manage_wallet_usecase" edge="1">
          <mxGeometry width="50" height="50" relative="1" as="geometry">
            <mxPoint x="130" y="220" as="sourcePoint" />
            <mxPoint x="180" y="170" as="targetPoint" />
          </mxGeometry>
        </mxCell>
        <mxCell id="customer_view_order_history" value="" style="endArrow=none;html=1;rounded=0;exitX=1;exitY=0.3333333333333333;exitDx=0;exitDy=0;exitPerimeter=0;entryX=0;entryY=0.5;entryDx=0;entryDy=0;" parent="1" source="customer_actor" target="view_order_history_usecase" edge="1">
          <mxGeometry width="50" height="50" relative="1" as="geometry">
            <mxPoint x="130" y="220" as="sourcePoint" />
            <mxPoint x="180" y="170" as="targetPoint" />
          </mxGeometry>
        </mxCell>
        <mxCell id="customer_manage_profile" value="" style="endArrow=none;html=1;rounded=0;exitX=1;exitY=0.3333333333333333;exitDx=0;exitDy=0;exitPerimeter=0;entryX=0;entryY=0.5;entryDx=0;entryDy=0;" parent="1" source="customer_actor" target="manage_profile_usecase" edge="1">
          <mxGeometry width="50" height="50" relative="1" as="geometry">
            <mxPoint x="130" y="220" as="sourcePoint" />
            <mxPoint x="180" y="170" as="targetPoint" />
          </mxGeometry>
        </mxCell>
        <mxCell id="customer_view_notifications" value="" style="endArrow=none;html=1;rounded=0;exitX=1;exitY=0.3333333333333333;exitDx=0;exitDy=0;exitPerimeter=0;entryX=0;entryY=0.5;entryDx=0;entryDy=0;" parent="1" source="customer_actor" target="view_notifications_usecase" edge="1">
          <mxGeometry width="50" height="50" relative="1" as="geometry">
            <mxPoint x="130" y="220" as="sourcePoint" />
            <mxPoint x="180" y="170" as="targetPoint" />
          </mxGeometry>
        </mxCell>
        <mxCell id="manager_login" value="" style="endArrow=none;html=1;rounded=0;exitX=1;exitY=0.3333333333333333;exitDx=0;exitDy=0;exitPerimeter=0;entryX=0;entryY=1;entryDx=0;entryDy=0;" parent="1" source="mess_manager_actor" target="login_usecase" edge="1">
          <mxGeometry width="50" height="50" relative="1" as="geometry">
            <mxPoint x="130" y="420" as="sourcePoint" />
            <mxPoint x="180" y="370" as="targetPoint" />
          </mxGeometry>
        </mxCell>
        <mxCell id="manager_register_customer" value="" style="endArrow=none;html=1;rounded=0;exitX=1;exitY=0.3333333333333333;exitDx=0;exitDy=0;exitPerimeter=0;entryX=0;entryY=0.5;entryDx=0;entryDy=0;" parent="1" source="mess_manager_actor" target="register_customer_usecase" edge="1">
          <mxGeometry width="50" height="50" relative="1" as="geometry">
            <mxPoint x="130" y="420" as="sourcePoint" />
            <mxPoint x="180" y="370" as="targetPoint" />
          </mxGeometry>
        </mxCell>
        <mxCell id="manager_generate_reports" value="" style="endArrow=none;html=1;rounded=0;exitX=1;exitY=0.3333333333333333;exitDx=0;exitDy=0;exitPerimeter=0;entryX=0;entryY=0.5;entryDx=0;entryDy=0;" parent="1" source="mess_manager_actor" target="generate_reports_usecase" edge="1">
          <mxGeometry width="50" height="50" relative="1" as="geometry">
            <mxPoint x="130" y="420" as="sourcePoint" />
            <mxPoint x="180" y="370" as="targetPoint" />
          </mxGeometry>
        </mxCell>
        <mxCell id="manager_manage_transactions" value="" style="endArrow=none;html=1;rounded=0;exitX=1;exitY=0.3333333333333333;exitDx=0;exitDy=0;exitPerimeter=0;entryX=0;entryY=0.5;entryDx=0;entryDy=0;" parent="1" source="mess_manager_actor" target="manage_transactions_usecase" edge="1">
          <mxGeometry width="50" height="50" relative="1" as="geometry">
            <mxPoint x="130" y="420" as="sourcePoint" />
            <mxPoint x="180" y="370" as="targetPoint" />
          </mxGeometry>
        </mxCell>
        <mxCell id="manager_send_notifications" value="" style="endArrow=none;html=1;rounded=0;exitX=1;exitY=0.3333333333333333;exitDx=0;exitDy=0;exitPerimeter=0;entryX=0;entryY=0.5;entryDx=0;entryDy=0;" parent="1" source="mess_manager_actor" target="send_notifications_usecase" edge="1">
          <mxGeometry width="50" height="50" relative="1" as="geometry">
            <mxPoint x="130" y="420" as="sourcePoint" />
            <mxPoint x="180" y="370" as="targetPoint" />
          </mxGeometry>
        </mxCell>
        <mxCell id="manager_topup_wallet" value="" style="endArrow=none;html=1;rounded=0;exitX=1;exitY=0.3333333333333333;exitDx=0;exitDy=0;exitPerimeter=0;entryX=0;entryY=1;entryDx=0;entryDy=0;" parent="1" source="mess_manager_actor" target="topup_wallet_usecase" edge="1">
          <mxGeometry width="50" height="50" relative="1" as="geometry">
            <mxPoint x="130" y="420" as="sourcePoint" />
            <mxPoint x="180" y="370" as="targetPoint" />
          </mxGeometry>
        </mxCell>
        <mxCell id="menu_manager_login" value="" style="endArrow=none;html=1;rounded=0;exitX=1;exitY=0.3333333333333333;exitDx=0;exitDy=0;exitPerimeter=0;entryX=0;entryY=1;entryDx=0;entryDy=0;" parent="1" source="menu_manager_actor" target="login_usecase" edge="1">
          <mxGeometry width="50" height="50" relative="1" as="geometry">
            <mxPoint x="130" y="570" as="sourcePoint" />
            <mxPoint x="180" y="520" as="targetPoint" />
          </mxGeometry>
        </mxCell>
        <mxCell id="menu_manager_create_edit_menu" value="" style="endArrow=none;html=1;rounded=0;exitX=1;exitY=0.3333333333333333;exitDx=0;exitDy=0;exitPerimeter=0;entryX=0;entryY=1;entryDx=0;entryDy=0;" parent="1" source="menu_manager_actor" target="create_edit_menu_usecase" edge="1">
          <mxGeometry width="50" height="50" relative="1" as="geometry">
            <mxPoint x="130" y="570" as="sourcePoint" />
            <mxPoint x="180" y="520" as="targetPoint" />
          </mxGeometry>
        </mxCell>
        <mxCell id="menu_manager_manage_food_items" value="" style="endArrow=none;html=1;rounded=0;exitX=1;exitY=0.3333333333333333;exitDx=0;exitDy=0;exitPerimeter=0;entryX=0;entryY=1;entryDx=0;entryDy=0;" parent="1" source="menu_manager_actor" target="manage_food_items_usecase" edge="1">
          <mxGeometry width="50" height="50" relative="1" as="geometry">
            <mxPoint x="130" y="570" as="sourcePoint" />
            <mxPoint x="180" y="520" as="targetPoint" />
          </mxGeometry>
        </mxCell>
        <mxCell id="menu_manager_set_item_prices" value="" style="endArrow=none;html=1;rounded=0;exitX=1;exitY=0.3333333333333333;exitDx=0;exitDy=0;exitPerimeter=0;entryX=0;entryY=1;entryDx=0;entryDy=0;" parent="1" source="menu_manager_actor" target="set_item_prices_usecase" edge="1">
          <mxGeometry width="50" height="50" relative="1" as="geometry">
            <mxPoint x="130" y="570" as="sourcePoint" />
            <mxPoint x="180" y="520" as="targetPoint" />
          </mxGeometry>
        </mxCell>
        <mxCell id="kitchen_staff_login" value="" style="endArrow=none;html=1;rounded=0;exitX=0;exitY=0.3333333333333333;exitDx=0;exitDy=0;exitPerimeter=0;entryX=1;entryY=1;entryDx=0;entryDy=0;" parent="1" source="kitchen_staff_actor" target="login_usecase" edge="1">
          <mxGeometry width="50" height="50" relative="1" as="geometry">
            <mxPoint x="1070" y="420" as="sourcePoint" />
            <mxPoint x="1020" y="370" as="targetPoint" />
          </mxGeometry>
        </mxCell>
        <mxCell id="kitchen_staff_view_orders" value="" style="endArrow=none;html=1;rounded=0;exitX=0;exitY=0.3333333333333333;exitDx=0;exitDy=0;exitPerimeter=0;entryX=1;entryY=0.5;entryDx=0;entryDy=0;" parent="1" source="kitchen_staff_actor" target="view_orders_usecase" edge="1">
          <mxGeometry width="50" height="50" relative="1" as="geometry">
            <mxPoint x="1070" y="420" as="sourcePoint" />
            <mxPoint x="1020" y="370" as="targetPoint" />
          </mxGeometry>
        </mxCell>
        <mxCell id="kitchen_staff_update_order_status" value="" style="endArrow=none;html=1;rounded=0;exitX=0;exitY=0.3333333333333333;exitDx=0;exitDy=0;exitPerimeter=0;entryX=1;entryY=0.5;entryDx=0;entryDy=0;" parent="1" source="kitchen_staff_actor" target="update_order_status_usecase" edge="1">
          <mxGeometry width="50" height="50" relative="1" as="geometry">
            <mxPoint x="1070" y="420" as="sourcePoint" />
            <mxPoint x="1020" y="370" as="targetPoint" />
          </mxGeometry>
        </mxCell>
        <mxCell id="place_order_includes_view_orders" value="&lt;&lt;include&gt;&gt;" style="endArrow=open;html=1;rounded=0;dashed=1;endFill=0;exitX=1;exitY=0.5;exitDx=0;exitDy=0;entryX=0;entryY=1;entryDx=0;entryDy=0;fontSize=10;" parent="1" source="place_order_usecase" target="view_orders_usecase" edge="1">
          <mxGeometry relative="1" as="geometry">
            <mxPoint as="offset" />
          </mxGeometry>
        </mxCell>
        <mxCell id="manage_wallet_includes_topup" value="&lt;&lt;include&gt;&gt;" style="endArrow=open;html=1;rounded=0;dashed=1;endFill=0;exitX=1;exitY=1;exitDx=0;exitDy=0;fontSize=10;" parent="1" source="manage_wallet_usecase" target="topup_wallet_usecase" edge="1">
          <mxGeometry x="-0.0279" y="13" relative="1" as="geometry">
            <mxPoint as="offset" />
            <Array as="points">
              <mxPoint x="670" y="570" />
            </Array>
          </mxGeometry>
        </mxCell>
        <mxCell id="track_order_includes_update_status" value="&lt;&lt;include&gt;&gt;" style="endArrow=open;html=1;rounded=0;dashed=1;endFill=0;exitX=1;exitY=0;exitDx=0;exitDy=0;entryX=0;entryY=1;entryDx=0;entryDy=0;fontSize=10;" parent="1" source="track_order_usecase" target="update_order_status_usecase" edge="1">
          <mxGeometry relative="1" as="geometry">
            <mxPoint as="offset" />
          </mxGeometry>
        </mxCell>
        <mxCell id="EJnztJKMTsqRwkuOwDvj-1" value="Include" style="text;html=1;align=center;verticalAlign=middle;whiteSpace=wrap;rounded=0;rotation=-60;" vertex="1" parent="1">
          <mxGeometry x="630" y="600" width="60" height="30" as="geometry" />
        </mxCell>
        <mxCell id="EJnztJKMTsqRwkuOwDvj-2" value="Extend" style="text;html=1;align=center;verticalAlign=middle;whiteSpace=wrap;rounded=0;rotation=30;" vertex="1" parent="1">
          <mxGeometry x="700.0034587474116" y="273.0000604652099" width="60" height="30" as="geometry" />
        </mxCell>
        <mxCell id="EJnztJKMTsqRwkuOwDvj-3" value="Include" style="text;html=1;align=center;verticalAlign=middle;whiteSpace=wrap;rounded=0;rotation=30;" vertex="1" parent="1">
          <mxGeometry x="680.0007621135331" y="330.00038105676657" width="60" height="30" as="geometry" />
        </mxCell>
      </root>
    </mxGraphModel>
  </diagram>
</mxfile>
